<?xml version="1.0" standalone="no"?>
<!DOCTYPE svg PUBLIC "-//W3C//DTD SVG 20010904//EN"
 "http://www.w3.org/TR/2001/REC-SVG-20010904/DTD/svg10.dtd">
<svg version="1.0" xmlns="http://www.w3.org/2000/svg"
 width="512.000000pt" height="512.000000pt" viewBox="0 0 512.000000 512.000000"
 preserveAspectRatio="xMidYMid meet">
<metadata>
Created by potrace 1.11, written by Peter Selinger 2001-2013
</metadata>
<g transform="translate(0.000000,512.000000) scale(0.100000,-0.100000)"
fill="#000000" stroke="none">
<path d="M0 2560 l0 -2560 2560 0 2560 0 0 2560 0 2560 -2560 0 -2560 0 0
-2560z m1963 676 c37 -14 100 -46 140 -72 69 -45 230 -196 294 -277 l30 -37
43 15 c54 19 130 19 175 1 l34 -15 71 85 c166 197 362 321 526 332 68 4 71 3
93 -24 22 -27 23 -35 18 -139 -4 -78 -14 -145 -36 -230 l-32 -119 16 -91 c18
-110 15 -273 -8 -326 -30 -72 -88 -86 -199 -48 -71 24 -191 83 -283 139 -36
22 -65 37 -65 34 0 -4 15 -32 34 -63 75 -124 194 -388 300 -665 63 -162 63
-166 -4 -166 -19 0 -77 6 -127 14 l-92 14 -35 -33 c-30 -28 -131 -78 -204
-100 -21 -6 -21 -5 -10 22 18 40 15 340 -5 493 -31 240 -71 460 -83 460 -7 0
-23 -71 -42 -192 -59 -362 -76 -628 -49 -735 l13 -51 -25 8 c-92 27 -214 93
-223 121 -3 8 -21 7 -68 -1 -71 -13 -205 -18 -214 -9 -7 6 63 196 146 394 61
147 164 360 211 438 20 31 33 57 31 57 -3 0 -38 -20 -77 -44 -105 -63 -186
-102 -271 -131 -123 -41 -165 -33 -198 41 -26 61 -31 190 -11 321 l15 103 -33
132 c-40 163 -46 305 -15 352 18 28 20 29 85 23 36 -3 97 -17 134 -31z"/>
</g>
</svg>
